<svg xmlns="http://www.w3.org/2000/svg" xmlns:xlink="http://www.w3.org/1999/xlink" version="1.1" x="0px" y="0px" viewBox="0 0 100 125" style="enable-background:new 0 0 100 100; fill:white;" xml:space="preserve"><path d="M67.9,30.54v34.1H32.1v-34.1H67.9 M68.53,27.68H31.47c-1.31,0-2.37,1.01-2.37,2.26v35.3c0,1.25,1.06,2.26,2.37,2.26h37.06  c1.31,0,2.37-1.01,2.37-2.26v-35.3C70.9,28.69,69.84,27.68,68.53,27.68L68.53,27.68z"/><polyline points="73.72,38.75 73.72,46.03 78.89,42.9 "/><polyline points="26.28,38.75 26.28,46.03 21.11,42.9 "/><path d="M48.82,20.66l-5.24,4.21l12.84,0.02l-5.24-4.22C50.49,20.1,49.51,20.1,48.82,20.66z"/><path d="M23.05,46.87"/><path d="M73.72,48.85"/><g><path d="M50,33.43c-5.84,0-10.58,4.73-10.58,10.58S44.16,54.58,50,54.58S60.58,49.84,60.58,44S55.84,33.43,50,33.43z M56.59,46.67   c-0.81,1.12-1.79,1.68-2.95,1.68c-0.9,0-1.53-0.38-1.87-1.15c-0.63,0.79-1.4,1.19-2.31,1.19c-0.93,0-1.73-0.39-2.4-1.17   s-1-1.8-1-3.07c0-1.31,0.37-2.37,1.12-3.19c0.75-0.82,1.64-1.23,2.68-1.23c1,0,1.72,0.32,2.16,0.95l0.09-0.77H54l-0.61,5.13   c-0.04,0.36-0.07,0.71-0.07,1.04c0,0.49,0.18,0.74,0.53,0.74c0.57,0,1.11-0.39,1.62-1.16c0.52-0.77,0.78-1.71,0.78-2.81   c0-1.59-0.57-2.89-1.72-3.88s-2.54-1.49-4.18-1.49c-1.8,0-3.31,0.62-4.53,1.85c-1.22,1.23-1.83,2.75-1.83,4.56   c0,1.69,0.57,3.16,1.72,4.4c1.15,1.24,2.76,1.87,4.84,1.87c1.62,0,3.26-0.43,4.95-1.3l0.65,1.5c-1.8,0.92-3.66,1.38-5.6,1.38   c-2.56,0-4.6-0.77-6.11-2.32c-1.51-1.55-2.26-3.39-2.26-5.54c0-2.24,0.79-4.11,2.38-5.62c1.59-1.51,3.5-2.26,5.75-2.26   c2.11,0,3.89,0.65,5.33,1.94c1.44,1.3,2.16,2.93,2.16,4.91C57.8,44.27,57.4,45.55,56.59,46.67z"/><path d="M50.02,41.53c-0.57,0-1.05,0.25-1.42,0.75s-0.56,1.15-0.56,1.96c0,0.68,0.15,1.25,0.44,1.69c0.29,0.44,0.67,0.67,1.13,0.67   c0.59,0,1.12-0.28,1.59-0.85c0.47-0.57,0.71-1.31,0.71-2.22c0-0.51-0.18-0.97-0.55-1.38C50.99,41.73,50.55,41.53,50.02,41.53z"/></g><g><path d="M80.24,64.5L80.25,45l-29.3,17.26c-0.59,0.35-1.32,0.35-1.91,0L19.75,45v19.5H8.88v3h10.88h60.49h10.88v-3H80.24z"/><path d="M19.75,77.88c0,1.04,0.84,1.88,1.88,1.88h56.73c1.04,0,1.88-0.84,1.88-1.88l0-7.38H19.75V77.88z"/></g><path d="M3,26.5"/><path d="M3,73.5"/><path d="M26.5,97"/><path d="M73.5,97"/><path d="M97,73.5"/><path d="M97,26.5"/><path d="M73.5,3"/><path d="M26.5,3"/><path d="M26.5,98.5H4.53c-1.67,0-3.03-1.36-3.03-3.04V73.5h3v21.96l22,0.04V98.5z"/><path d="M95.46,98.5H73.5v-3h21.96l0.04-22h3v21.96C98.5,97.14,97.14,98.5,95.46,98.5z"/><path d="M98.5,26.5h-3V4.54l-22-0.03v-3h21.96c1.67,0,3.04,1.36,3.04,3.03V26.5z"/><path d="M4.5,26.5h-3V4.54c0-1.67,1.36-3.03,3.03-3.03H26.5v3H4.53L4.5,26.5z"/></svg>