<svg xmlns="http://www.w3.org/2000/svg" xmlns:xlink="http://www.w3.org/1999/xlink" version="1.1" x="0px" y="0px" viewBox="0 0 90 90" enable-background="new 0 0 100 100" xml:space="preserve" style="fill:white;"><g><path d="M39.229,42.089v13.228l0.896,0.494L50.757,61.7l9.236-5.889l0.777-0.494V42.089H39.229z M58.224,47.038   c-0.104,1.662-1.462,3.008-3.125,3.103c-1.592,0.091-2.959-0.941-3.383-2.377h-3.433c-0.424,1.436-1.79,2.468-3.383,2.377   c-1.663-0.095-3.02-1.44-3.124-3.103c-0.123-1.937,1.411-3.543,3.319-3.543c1.508,0,2.782,1.006,3.188,2.385h3.433   c0.406-1.379,1.68-2.385,3.189-2.385C56.813,43.495,58.347,45.101,58.224,47.038z"/><path d="M37.345,45.682v8.245H29.74v-5.654c0-1.431,1.16-2.591,2.591-2.591H37.345z"/><path d="M70.26,48.273v5.654h-7.604v-8.245h5.013C69.1,45.682,70.26,46.842,70.26,48.273z"/><path d="M37.345,45.682v8.245H29.74v-5.654c0-1.431,1.16-2.591,2.591-2.591H37.345z"/><path d="M37.345,45.682v8.245H29.74v-5.654c0-1.431,1.16-2.591,2.591-2.591H37.345z"/><path d="M70.26,48.273v5.654h-7.604v-8.245h5.013C69.1,45.682,70.26,46.842,70.26,48.273z"/><path d="M70.26,48.273v5.654h-7.604v-8.245h5.013C69.1,45.682,70.26,46.842,70.26,48.273z"/><path d="M64.251,38.321h-2.41l-6.627-12.924c-0.146-0.284-0.428-0.476-0.746-0.508c-0.318-0.031-0.631,0.101-0.83,0.352   l-4.021,5.055l-4.091-5.404c-0.202-0.267-0.531-0.406-0.863-0.366c-0.334,0.039-0.62,0.253-0.753,0.562l-5.725,13.234H35.75   c-0.521,0-0.942,0.421-0.942,0.942c0,0.52,0.422,0.941,0.942,0.941h3.049c0.002,0,0.003,0,0.005,0c0.001,0,0.003,0,0.004,0h22.455   c0.001,0,0.001,0,0.003,0c0.001,0,0.002,0,0.003,0h2.982c0.52,0,0.941-0.422,0.941-0.941   C65.192,38.742,64.771,38.321,64.251,38.321z"/><path d="M39.229,42.089v13.228l0.896,0.494L50.757,61.7l9.236-5.889l0.777-0.494V42.089H39.229z M58.224,47.038   c-0.104,1.662-1.462,3.008-3.125,3.103c-1.592,0.091-2.959-0.941-3.383-2.377h-3.433c-0.424,1.436-1.79,2.468-3.383,2.377   c-1.663-0.095-3.02-1.44-3.124-3.103c-0.123-1.937,1.411-3.543,3.319-3.543c1.508,0,2.782,1.006,3.188,2.385h3.433   c0.406-1.379,1.68-2.385,3.189-2.385C56.813,43.495,58.347,45.101,58.224,47.038z"/><path d="M62.655,55.811v0.538l-11.829,7.543l-13.481-7.465v-0.616H29.74v17.08c0,1.432,1.16,2.591,2.591,2.591h35.337   c1.432,0,2.592-1.159,2.592-2.591v-17.08H62.655z M61.434,68.297H38.566c-0.521,0-0.942-0.421-0.942-0.942   c0-0.521,0.422-0.942,0.942-0.942h22.867c0.521,0,0.942,0.422,0.942,0.942C62.376,67.876,61.954,68.297,61.434,68.297z"/></g></svg>