<svg xmlns="http://www.w3.org/2000/svg" xmlns:xlink="http://www.w3.org/1999/xlink" version="1.1" x="0px" y="0px" viewBox="0 0 32 40" style="enable-background:new 0 0 32 32;" xml:space="preserve"><style type="text/css">
	.st0{display:none;}
	.st1{display:inline;}
</style><g><path d="M15.76,12.403c-0.565,0.001-1.012,0.277-1.213,0.552c-0.364,0.463-0.427,1.225-0.177,1.92   c0.184,0.51,0.5,0.871,0.827,0.941c0.471,0.121,1.318-0.284,1.986-1.087c0.001-0.432,0.049-0.9,0.149-1.403   C16.969,12.756,16.383,12.361,15.76,12.403z"/><path d="M24.503,1.998H7.497c-2.485,0-4.5,2.015-4.5,4.5V21.31c0,2.485,2.015,4.5,4.5,4.5h4.534l3.201,3.833   c0.4,0.479,1.135,0.479,1.535,0l3.201-3.833h4.534c2.485,0,4.5-2.015,4.5-4.5V6.498C29.003,4.013,26.988,1.998,24.503,1.998z    M22.787,14.486c-0.085,0.464-0.243,1.328-0.962,2.108c-0.787,0.851-2.051,1.566-3.229,1.021c-0.383-0.176-0.691-0.482-0.932-0.85   c-0.732,0.553-1.549,0.87-2.299,0.87c-0.195,0-0.385-0.021-0.568-0.065c-0.923-0.199-1.723-0.981-2.121-2.087   c-0.467-1.296-0.299-2.683,0.437-3.617c0.573-0.785,1.612-1.278,2.694-1.264c0.768,0,1.512,0.277,2.132,0.751   c0.216-0.376,0.666-0.563,1.083-0.407c0.465,0.175,0.701,0.693,0.527,1.158c-0.172,0.459-0.306,0.88-0.399,1.252   c-0.029,0.119-0.507,2.3,0.198,2.624c0.271,0.124,0.845-0.272,1.155-0.608c0.364-0.395,0.451-0.867,0.514-1.212   c0.224-1.221-0.247-2.266-0.459-2.658c-0.68-1.256-1.832-1.869-2.678-2.162c-0.032-0.013-3.136-1.055-5.363,1.058   c-1.417,1.344-1.955,3.444-1.337,5.228c0.128,0.369,0.865,2.245,2.847,2.9c1.138,0.375,2.174,0.173,2.691,0.02   c0.478-0.141,0.978,0.129,1.12,0.605c0.142,0.477-0.13,0.978-0.606,1.119c-0.486,0.146-1.123,0.272-1.852,0.272   c-0.588,0-1.237-0.083-1.917-0.308c-2.788-0.921-3.807-3.512-3.983-4.021c-0.844-2.438-0.121-5.3,1.8-7.122   c2.405-2.281,5.652-1.984,7.191-1.452c1.623,0.563,2.927,1.63,3.671,3.007C22.443,11.206,23.115,12.702,22.787,14.486z"/></g></svg>