<svg xmlns="http://www.w3.org/2000/svg" viewBox="0 0 32 40" x="0px" y="0px" style="fill:white;"><title>aArtboard 46</title><g data-name="01"><path d="M27,2H5A3.0033,3.0033,0,0,0,2,5v8a3.0033,3.0033,0,0,0,3,3h8a1,1,0,0,0,0-2H5a1.0006,1.0006,0,0,1-1-1V5A1.0006,1.0006,0,0,1,5,4H27a1.0006,1.0006,0,0,1,1,1v8a1,1,0,0,0,2,0V5A3.0033,3.0033,0,0,0,27,2Z"/><path d="M13.0625,7a1,1,0,0,0-1.3662-.3662l-1.0986.6343V6a1,1,0,0,0-2,0V7.2675L7.5,6.6338a1,1,0,0,0-1,1.7324L7.5978,9,6.5,9.6338a1,1,0,0,0,1,1.7324l1.0977-.6337V12a1,1,0,0,0,2,0V10.7319l1.0986.6343a1,1,0,0,0,1-1.7324L11.5985,9l1.0978-.6338A1,1,0,0,0,13.0625,7Z"/><path d="M15.1338,11a1.0014,1.0014,0,0,0,1.3662.3662l1.0977-.6337V12a1,1,0,0,0,2,0V10.7319l1.0986.6343a1,1,0,1,0,1-1.7324L20.5985,9l1.0978-.6338a1,1,0,0,0-1-1.7324l-1.0986.6343V6a1,1,0,0,0-2,0V7.2675L16.5,6.6338a1,1,0,0,0-1,1.7324L16.5978,9,15.5,9.6338A1,1,0,0,0,15.1338,11Z"/><path d="M24.6436,19.1387,21.043,22.74l-1.6866-1.6865a1,1,0,0,0-1.414,1.4141l2.3935,2.3935a1,1,0,0,0,1.4141,0l4.3076-4.3086a1,1,0,0,0-1.414-1.414Z"/><path d="M22,14a8,8,0,1,0,8,8A8.0092,8.0092,0,0,0,22,14Zm0,14a6,6,0,1,1,6-6A6.0066,6.0066,0,0,1,22,28Z"/></g></svg>