<svg xmlns="http://www.w3.org/2000/svg" xmlns:xlink="http://www.w3.org/1999/xlink" version="1.1" x="0px" y="0px" viewBox="0 0 73 91.25" style="enable-background:new 0 0 73 73;" xml:space="preserve"><g><path d="M6.5814495,67.419632c1.0842896,0.5178223,2.7132568,0.1593628,3.6395874-0.3394775   c0.9223022-0.4966431,1.7042236-1.213501,2.4681396-1.9302979c1.6361694-1.5352821,3.2388306-3.1057167,4.8413696-4.6760292   c0.8098469-0.79356,1.7607498-1.77631,1.6881104-2.9223022c1.0054493,0.3986053,2.0795555-0.0341377,2.8200684-0.7828979   c0.635376,0.3173828,1.2944946,0.5809326,1.968689,0.803894c-0.2651978,1.5353394-0.5301514,3.0950317-0.3568115,4.6431885   c0.3861256,3.4482841,2.7858486,5.1741753,6.0949097,5.1223793c13.9774799-0.2191772,23.9135761,0.3909302,36.1968384-0.4962769   c0.8010864-0.0579224,2.6877441-0.0706177,2.9171753-1.1194458c0.1359863-0.6216431-0.6186523-0.8630371-1.6282959-0.9267578   c0.265686-0.4252319,0.4262695-0.922245,0.4262695-1.458622l0.03125-45.0898438   c0-1.5322266-1.2470703-2.7788076-2.7792969-2.7788076h-7.9091187c0.0164909-1.3270159,0.0132065-2.3473816,0.1102905-3.3618164   c0.0428581-0.4398069-0.3038406-0.8217773-0.7460938-0.8217773l-3.432251-0.0090332   c-0.317627-1.8589478-1.3067627-3.5781255-2.7279053-4.6892095c-3.7456779-3.0128262-7.8512115-0.2819028-8.5568848,4.6118169   c-1.5393066-0.020752-3.0793457-0.0455933-4.6101074-0.0908203c-0.4169922-0.0375977-0.7285156,0.2827148-0.7685547,0.671875   c-0.1331787,1.2821045-0.1049805,2.503479-0.0620117,3.6889648h-8.1967793c-0.7506714,0-1.430542,0.303833-1.9298096,0.7925406   c-2.1867065,1.1268921-2.9252319,4.8544922-2.9315186,6.9124146c-0.0072021,2.3657227,0.4567261,4.7283936,0.3873291,7.0847778   c-8.1346531,3.278965-11.3413248,12.9668732-6.814209,20.4318848c-1.1165867,0.5308685-1.6939964,1.6738319-1.3934937,3.0750732   c-2.130249,0.3790283-4.9436035,3.0983887-4.9794312,3.1334839c-1.6253195,1.65588-3.1609678,2.9981384-5.1240234,4.75   C3.4926507,63.208477,3.7057335,66.226181,6.5814495,67.419632z M19.9172649,55.6504631   c-1.5572376,0.4231644-3.5275288-1.5773468-3.1132813-2.9931641c0.097168-0.3314819,0.4161377-0.5921021,0.7907715-0.6890869   c0.8525391,1.1047974,1.8748779,2.0777588,3.0421753,2.8995972C20.6051922,55.2329826,20.3432293,55.5346184,19.9172649,55.6504631   z M37.7043762,12.6265383c2.5069733,0.0665207,4.709774,0.0849609,4.6035156,0.0849609   c0.0103226,0,0.2258339-0.0390282,0.2607422-0.0522461c0.836834-0.3130245,0.2235527-1.2497568,1.1083984-3.2792969   c0.5341797-1.2485352,1.7382813-2.5195317,3.2275391-2.5463872c1.8479233-0.0395803,4.3748856,2.0738072,4.6220512,5.2490239   c0.0038643,0.0484009,0.0247993,0.0897827,0.0371895,0.1349487c0.0300064,0.1091862,0.0063324,0.1016493,0.1271362,0.2574463   c0.0758591,0.0980053,0.0469322,0.0933266,0.2203369,0.1918335c0.1002312,0.0570517,0.0652046,0.0750141,0.3632202,0.1071167   c0.9695396,0.0026131,3.4318695,0.0092497,3.2833862,0.0088501c-0.1105156,2.0091028,0.0581017,3.6256227-0.2871094,5.6582022   c-0.010025,0.0568638-0.1088905,0.6264076-0.1240234,0.6821289c-0.3025665,0.1966686-2.9200325,0.3626308-4.0996094,0.4360352   c-1.4794922,0.0913086-11.0634766,0.1625977-13.3320313-0.1777344   C37.8859596,16.7886333,37.5651817,14.9411478,37.7043762,12.6265383z M26.7414837,18.2471428   c0-0.7050781,0.5693359-1.2788086,1.2685547-1.2788086h8.2349873c0.0197754,0.9473877,0.0253906,1.8760376-0.0709229,2.8408203   c-0.0205078,0.2182617,0.0771484,0.4853516,0.2304688,0.6425781c0.9396935,0.9707375,13.8956146,0.6568546,14.7412109,0.6040039   c4.8970909-0.3187923,5.2467918-0.330595,5.5820313-2.2402344c0.0158424-0.1087227,0.1406288-0.6844482,0.2208252-1.847168   h7.9608154c0.7050781,0,1.2792969,0.5737305,1.2792969,1.2783203l-0.03125,45.0893555   c0,0.7050819-0.5791016,1.2793007-1.2841797,1.2793007l-36.8671875-0.2714844   c-0.7089844-0.0068359-1.2646484-0.5683632-1.2646484-1.2793007v-4.859314   c13.3960819,1.8242874,21.8257313-13.5926208,13.2736225-23.3609619c-3.0507202-4.0247841-8.0298386-6.213253-13.2736225-5.4558716   V18.2471428z M18.707304,35.7622795c5.3586903-7.0938854,16.2556629-6.8421135,21.1064472,1.5039063   c4.0322151,6.9363747,0.0134583,16.3108444-7.6474609,18.2260742l0.0009766,0.0009766   c-6.7736988,1.8236885-13.0791645-1.9500656-15.2109394-7.7353516   C15.4505339,43.622139,16.1139717,39.1954613,18.707304,35.7622795z M7.2805462,61.8223381   c1.3896484-1.2382813,2.7021484-2.4091797,4.1386719-3.8730469c1.3066406-1.3330078,3.6230469-2.7822266,4.3154297-2.7822266   c0.046875,0,0.0859375,0.0068359,0.1171875,0.0205078c0.0237198,0.024086,1.5561752,1.7128906,1.5898438,1.7128906   c0.1121807,0.7303658-2.631259,3.2362442-3.1503906,3.7470703c-2.0644531,2.0263672-3.6503906,3.5175819-5.3017578,4.9882851   c-0.6982422,0.625-1.7636719,0.6445313-2.4804688,0.0439453c-0.0999994-0.1182251-0.8741884-0.540863-0.8837891-1.5546875   C5.6139946,62.9340782,6.6492758,62.5018845,7.2805462,61.8223381z"/><path d="M47.9641418,11.5396242c1.0301399-0.6953974,1.0080414-2.0991077-0.0556641-2.7558594   c-0.6828079-0.4239044-1.4723663-0.2862453-1.7871094,0.0258789c-0.4163666,0.1788235-0.8284111,0.8657484-0.6914063,1.6518555   C45.6436958,11.6868544,46.9330444,12.2337599,47.9641418,11.5396242z"/><path d="M42.2414856,16.0967522h7.9384766c0.4140625,0,0.75-0.3359365,0.75-0.749999s-0.3359375-0.75-0.75-0.75h-7.9384766   c-0.4140625,0-0.75,0.3359375-0.75,0.75S41.8274231,16.0967522,42.2414856,16.0967522z"/><path d="M31.4123821,36.3037834c3.9114399,1.7033348,6.0425777,6.0050888,5.0253925,10.1494141   c-0.0986328,0.4023438,0.1474609,0.8085938,0.5498047,0.9072266c0.0605469,0.0146484,0.1201172,0.0214844,0.1796875,0.0214844   c0.3369141,0,0.6435547-0.2294922,0.7275391-0.5712891c1.1912575-4.8612442-1.312767-9.8916206-5.8828125-11.8818359   c-0.3779316-0.1645508-0.821291,0.0083008-0.9873066,0.3881836C30.8596478,35.6968498,31.0334759,36.1387444,31.4123821,36.3037834   z"/><path d="M36.4963684,48.3721428c-0.2919922-0.2919922-0.7441406-0.2705078-1.0371094,0.0195313   c-0.2929688,0.2910156-0.2744141,0.7861328,0.015625,1.0800781c0.0009766,0.0019531,0.0458984,0.0478516,0.0478516,0.0488281   c0.1464844,0.1464844,0.3378906,0.2197266,0.5302734,0.2197266c0.6608849,0,1.0051842-0.8053589,0.5302734-1.2802734   L36.4963684,48.3721428z"/><path d="M46.506134,31.7676506c3.4144096,0.1321049,6.2768097-1.193819,13.2646484-0.6162109   c0.4082031,0.0356445,0.7753906-0.2729492,0.8085938-0.6855469c0.0341797-0.4130859-0.2724609-0.7753906-0.6855469-0.8095703   c-6.8608742-0.5661201-10.4576187,0.7294521-13.3271484,0.6123047c-1.6386719-0.0664063-3.0292969-0.5786133-3.9150581-1.4428711   c-0.2949028-0.2895508-0.7695122-0.2832031-1.0605278,0.0126953c-0.2890625,0.2963867-0.2832031,0.7714844,0.0136719,1.0605469   C43.0793762,31.3389397,45.084259,31.7100334,46.506134,31.7676506z"/><path d="M57.5080872,39.7769279c-2.9477425,0.7923546-3.0998383,2.4723816-9.4453125,0.4208984   c-0.3916016-0.128418-0.8164063,0.0883789-0.9443359,0.4829102c-0.1269531,0.3935547,0.0888672,0.8164063,0.4833984,0.9443359   c2.3107033,0.7468796,4.7020798,1.4637413,7.0839844,0.8164063c1.1275291-0.3065109,2.2177353-0.9494171,3.2119141-1.2158203   c0.8271484-0.2246094,1.8837891-0.1699219,2.3691406,0.4570313c0.2519531,0.3261719,0.7246094,0.390625,1.0517578,0.1357422   c0.328125-0.2529297,0.3886719-0.7236328,0.1357422-1.0517578C60.4875793,39.5117912,58.7239075,39.4507561,57.5080872,39.7769279z   "/><path d="M60.3557434,52.0449944c-1.15625-0.7480469-2.7207031-0.9501953-4.5263672-0.5830078   c-3.5750465,0.7256012-3.8454018,1.981144-11.0908203,0.3945313c-0.3974609-0.0839844-0.8046875,0.1669922-0.8925781,0.5722656   c-0.0888672,0.4042969,0.1669922,0.8046875,0.5722656,0.8925781c7.6598625,1.6773109,8.26408,0.3061523,11.7099609-0.3886719   c0.9853516-0.2021484,2.375-0.2998047,3.4130859,0.3720703c0.3476563,0.2236328,0.8125,0.125,1.0371094-0.2226563   S60.7043762,52.2705803,60.3557434,52.0449944z"/></g></svg>